<?xml version="1.0" encoding="UTF-8" standalone="no"?>
<!-- Created with Inkscape (http://www.inkscape.org/) -->

<svg
   xmlns:dc="http://purl.org/dc/elements/1.1/"
   xmlns:cc="http://creativecommons.org/ns#"
   xmlns:rdf="http://www.w3.org/1999/02/22-rdf-syntax-ns#"
   xmlns:svg="http://www.w3.org/2000/svg"
   xmlns="http://www.w3.org/2000/svg"
   xmlns:sodipodi="http://sodipodi.sourceforge.net/DTD/sodipodi-0.dtd"
   xmlns:inkscape="http://www.inkscape.org/namespaces/inkscape"
   width="250"
   height="250"
   viewBox="0 0 66.145831 66.145835"
   version="1.1"
   id="svg832"
   inkscape:version="0.92.3 (2405546, 2018-03-11)"
   sodipodi:docname="add.svg">
  <defs
     id="defs826" />
  <sodipodi:namedview
     id="base"
     pagecolor="#ffffff"
     bordercolor="#666666"
     borderopacity="1.0"
     inkscape:pageopacity="0.0"
     inkscape:pageshadow="2"
     inkscape:zoom="1.979899"
     inkscape:cx="134.79144"
     inkscape:cy="148.33096"
     inkscape:document-units="mm"
     inkscape:current-layer="layer1"
     showgrid="false"
     units="px"
     inkscape:window-width="1875"
     inkscape:window-height="1145"
     inkscape:window-x="45"
     inkscape:window-y="27"
     inkscape:window-maximized="1" />
  <metadata
     id="metadata829">
    <rdf:RDF>
      <cc:Work
         rdf:about="">
        <dc:format>image/svg+xml</dc:format>
        <dc:type
           rdf:resource="http://purl.org/dc/dcmitype/StillImage" />
        <dc:title></dc:title>
      </cc:Work>
    </rdf:RDF>
  </metadata>
  <g
     inkscape:label="Layer 1"
     inkscape:groupmode="layer"
     id="layer1"
     transform="translate(0,-230.85413)">
    <ellipse
       style="opacity:1;fill:#ac9393;fill-opacity:0.55686275;stroke:#2a2a2a;stroke-width:1.93757725;stroke-miterlimit:4;stroke-dasharray:none;stroke-dashoffset:0;stroke-opacity:1"
       id="path889"
       cx="32.60688"
       cy="263.04984"
       rx="9.7190742"
       ry="9.5854397" />
    <g
       aria-label="+"
       transform="matrix(0.26458333,0,0,0.26458333,37.150464,260.5145)"
       style="font-style:normal;font-weight:normal;font-size:85.33333588px;line-height:125%;font-family:Sans;letter-spacing:0px;word-spacing:0px;fill:#2a2a2a;fill-opacity:1;stroke:none;stroke-width:1px;stroke-linecap:butt;stroke-linejoin:miter;stroke-opacity:1"
       id="flowRoot891">
      <path
         d="m 1.1705741,9.3001317 q 0,1.5416663 -1.04166675,2.7083333 -1.00000003,1.125 -2.54166675,1.125 -0.5,0 -1.5,-0.166667 -1.0000001,-0.166666 -1.5416667,-0.166666 l -4.1666668,0.08333 q -2.5416671,0.08333 -4.1666671,0 v 9.791667 q 0,3.75 -3.708333,3.75 -1.833334,0 -2.791667,-0.916667 -0.916667,-0.958333 -0.916667,-2.833333 l -0.04167,-4.791667 -0.04167,-4.833333 q -5.041667,0.291666 -7.125,0.291666 -6.458334,0 -6.458334,-3.833333 0,-2.7083334 2.291667,-3.3750001 0.791667,-0.2083333 4.166667,-0.2083333 2.083333,0 7.125,-0.2916667 l -0.04167,-4.87500016 q 0,-3.79166674 0.375,-5.25000014 0.416667,-1.5000001 1.291667,-2.2500001 0.875,-0.75 2.25,-0.75 1.583334,0 2.666667,1.0416667 1.125,1 1.125,2.5833334 0,0.7083334 -0.166667,2.2500001 -0.125,1.54166668 -0.125,2.33333337 l 0.04167,4.75000013 3.125,0.125 q 0.8333334,0 2.5416668,-0.083333 1.7083334,-0.125 2.5416667,-0.125 6.8333336,0 6.8333336,3.9166668 z"
         style="font-style:normal;font-variant:normal;font-weight:normal;font-stretch:normal;font-size:85.33333588px;font-family:'Comic Sans MS';-inkscape-font-specification:'Comic Sans MS';fill:#2a2a2a;fill-opacity:1"
         id="path927"
         inkscape:connector-curvature="0" />
    </g>
  </g>
</svg>
